# xmcd
#
# Track frame offsets: 
#        150
#        11731
#        21671
#        33975
#        47322
#        57434
#        68007
#        82446
#        92815
#        105416
#        117059
#        127109
#
# Disc length: 1805 seconds
#
# Revision: 0
# Processed by: cddbd v1.5.2PL0 Copyright (c) Steve Scherf et al.
# Submitted via: ExactAudioCopyFreeDBPlugin 1.0
#
DISCID=a0070b0c
DTITLE=Lazy Lester - True Blues
DYEAR=1967
DGENRE=Blues
TTITLE0=I'm A Lover Not A Fighter
TTITLE1=I Hear You Knockin'
TTITLE2=Sugar Coated Love
TTITLE3=I'm So Glad
TTITLE4=If You Think I've Lost You
TTITLE5=Bye, Bye Baby
TTITLE6=Lonesome Highway Blues
TTITLE7=I Made Up My Mind
TTITLE8=Because She's Gone
TTITLE9=Pondarosa Stomp
TTITLE10=The Same Thing Could Happen To You
TTITLE11=Lester's Stomp
EXTD=
EXTT0=
EXTT1=
EXTT2=
EXTT3=
EXTT4=
EXTT5=
EXTT6=
EXTT7=
EXTT8=
EXTT9=
EXTT10=
EXTT11=
PLAYORDER=
